<svg width="582" height="120" viewBox="0 0 582 120" fill="none" xmlns="http://www.w3.org/2000/svg">
<path d="M85.6889 9.96621C85.4536 8.40315 84.7577 6.98313 83.6934 5.73677C83.5092 5.54267 83.325 5.33834 83.1408 5.15446C82.0662 4.08177 80.7052 3.15211 79.0678 2.39613C70.7069 -1.49618 55.6328 -1.02624 40.2722 6.63578C22.0256 15.728 6.59332 51.1062 0.637351 73.9492C0.473613 74.46 0.330343 74.9913 0.228006 75.5531C-0.160871 77.6883 -0.0483013 80.1708 0.535015 82.8576C2.81711 79.0675 6.21467 73.2035 10.4412 65.5619C12.3446 62.1293 14.4016 58.3596 16.6018 54.2323C28.2579 32.4517 60.5654 38.1931 72.5183 35.4961C81.9025 33.3814 85.8629 26.8942 86.1904 17.8632C86.2825 15.4011 86.1085 12.7654 85.6889 9.95599V9.96621Z" fill="url(#paint0_linear_122_291)" fill-opacity="0.64"/>
<path d="M83.7041 5.74698C83.5199 5.55288 83.3357 5.34856 83.1515 5.16467C82.077 4.09199 80.7159 3.16233 79.0785 2.40634C80.4396 5.55288 82.8343 10.855 86.1909 17.8836C88.4423 22.5932 91.1235 28.0588 94.2345 34.1986C105.399 56.2244 82.1486 79.3433 77.4923 90.6524C74.0026 99.1317 76.602 105.864 83.1106 111.187C85.2903 112.964 87.8999 114.599 90.8779 116.08C91.5635 116.427 92.2901 116.652 93.0372 116.785C94.2345 116.56 95.4114 116.336 96.5473 116.09C99.8528 115.406 102.974 113.904 105.42 111.575L105.471 111.524C111.847 105.435 117.639 94.5856 119.696 80.8757C122.96 59.1257 99.2183 22.3889 83.7041 5.74698Z" fill="url(#paint1_linear_122_291)" fill-opacity="0.24"/>
<path d="M83.1201 111.186C80.4184 111.145 77.5837 111.084 74.5852 111.023C49.8608 110.492 40.3845 79.1284 32.5762 69.699C26.3951 62.2413 18.7404 61.6794 10.4511 65.5718C8.27138 66.5934 6.05068 67.9214 3.79928 69.5151C2.29494 70.5776 1.25111 72.0998 0.64733 73.9591C0.50406 74.5006 0.371023 75.0318 0.237986 75.563C-0.150892 77.6982 -0.0383221 80.1807 0.544994 82.8675C2.44845 91.6431 9.46871 102.666 21.3499 111.472C36.2808 122.547 69.7345 121.116 93.0364 116.785C94.2338 116.56 95.4106 116.335 96.5466 116.09C99.852 115.406 102.973 113.904 105.419 111.575L105.47 111.523C100.282 111.411 92.6783 111.34 83.1201 111.186Z" fill="url(#paint2_linear_122_291)" fill-opacity="0.8"/>
<path d="M199.195 21.624V98.2749H196.353L146.894 26.4673V98.2749H144V21.624H146.894L196.353 93.2737V21.624H199.195Z" fill="#121212"/>
<path d="M214.506 70.8996V68.6885C214.506 64.512 215.102 60.6865 216.295 57.2119C217.523 53.7374 219.224 50.7366 221.399 48.2097C223.608 45.6827 226.239 43.7348 229.291 42.3661C232.343 40.9622 235.71 40.2603 239.393 40.2603C243.112 40.2603 246.497 40.9622 249.548 42.3661C252.6 43.7348 255.231 45.6827 257.441 48.2097C259.651 50.7366 261.352 53.7374 262.545 57.2119C263.737 60.6865 264.333 64.512 264.333 68.6885V70.8996C264.333 75.0761 263.737 78.9016 262.545 82.3762C261.352 85.8507 259.651 88.8515 257.441 91.3785C255.266 93.9054 252.653 95.8708 249.601 97.2747C246.549 98.6434 243.182 99.3278 239.499 99.3278C235.78 99.3278 232.395 98.6434 229.344 97.2747C226.292 95.8708 223.661 93.9054 221.451 91.3785C219.241 88.8515 217.523 85.8507 216.295 82.3762C215.102 78.9016 214.506 75.0761 214.506 70.8996ZM217.347 68.6885V70.8996C217.347 74.304 217.838 77.5504 218.82 80.6389C219.838 83.6923 221.293 86.4123 223.188 88.7989C225.082 91.1854 227.397 93.0631 230.133 94.4319C232.869 95.8006 235.991 96.485 239.499 96.485C242.971 96.485 246.058 95.8006 248.759 94.4319C251.495 93.0631 253.81 91.1854 255.704 88.7989C257.599 86.4123 259.037 83.6923 260.019 80.6389C261.001 77.5504 261.492 74.304 261.492 70.8996V68.6885C261.492 65.3543 261.001 62.1605 260.019 59.1071C259.037 56.0537 257.581 53.3338 255.652 50.9472C253.758 48.5255 251.442 46.6128 248.706 45.2089C245.97 43.805 242.866 43.1031 239.393 43.1031C235.921 43.1031 232.816 43.805 230.08 45.2089C227.379 46.6128 225.064 48.5255 223.135 50.9472C221.241 53.3338 219.803 56.0537 218.82 59.1071C217.838 62.1605 217.347 65.3543 217.347 68.6885Z" fill="#121212"/>
<path d="M293.588 94.9057L314.529 41.3132H317.581L295.43 98.2749H292.746L293.588 94.9057ZM273.594 41.3132L294.535 94.9583L295.377 98.2749H292.641L270.542 41.3132H273.594Z" fill="#121212"/>
<path d="M363.673 87.588V58.1595C363.673 55.0008 362.989 52.2984 361.621 50.0522C360.288 47.806 358.324 46.0863 355.728 44.893C353.167 43.6997 350.028 43.1031 346.31 43.1031C342.872 43.1031 339.768 43.7173 336.997 44.9457C334.261 46.139 332.086 47.7885 330.472 49.8943C328.894 52.0001 328.104 54.3691 328.104 57.0014L325.263 56.8961C325.263 54.685 325.772 52.5792 326.789 50.5787C327.841 48.5782 329.297 46.8058 331.156 45.2615C333.05 43.7173 335.278 42.5065 337.838 41.629C340.434 40.7165 343.258 40.2603 346.31 40.2603C350.273 40.2603 353.764 40.9271 356.78 42.2608C359.832 43.5945 362.217 45.595 363.936 48.2623C365.655 50.9296 366.514 54.2638 366.514 58.2648V86.7984C366.514 88.834 366.637 90.8871 366.883 92.9578C367.163 95.0285 367.532 96.6429 367.988 97.8011V98.2749H364.725C364.375 96.9062 364.112 95.2566 363.936 93.3263C363.761 91.3609 363.673 89.4482 363.673 87.588ZM364.936 66.4774L365.041 69.3729H350.203C346.52 69.3729 343.223 69.7414 340.311 70.4784C337.4 71.1804 334.927 72.1806 332.893 73.4792C330.858 74.7778 329.297 76.322 328.21 78.1119C327.122 79.9019 326.579 81.8848 326.579 84.0608C326.579 86.3421 327.192 88.4303 328.42 90.3256C329.683 92.2208 331.419 93.7299 333.629 94.853C335.839 95.9761 338.382 96.5377 341.259 96.5377C345.257 96.5377 348.8 95.8884 351.887 94.5898C354.974 93.2561 357.587 91.396 359.727 89.0094C361.867 86.6229 363.498 83.7976 364.62 80.5336L365.883 83.1659C365.216 85.1313 364.217 87.0791 362.884 89.0094C361.586 90.9047 359.92 92.6419 357.885 94.2213C355.851 95.7655 353.448 97.0115 350.677 97.9591C347.941 98.8716 344.801 99.3278 341.259 99.3278C337.716 99.3278 334.629 98.6786 331.998 97.38C329.367 96.0463 327.333 94.2213 325.895 91.9049C324.456 89.5534 323.737 86.8685 323.737 83.8502C323.737 81.3233 324.334 79.0069 325.526 76.9011C326.719 74.7602 328.438 72.9177 330.683 71.3734C332.963 69.7941 335.734 68.5832 338.996 67.7409C342.258 66.8986 345.941 66.4774 350.045 66.4774H364.936Z" fill="#121212"/>
<path d="M400.612 98.2749V31.4286H377.444V24.7439H431.754V31.4286H408.586V98.2749H400.612Z" fill="#FFD700"/>
<path d="M452.264 46.0916C456.79 46.0916 460.885 47.2057 464.549 49.434C468.212 51.6622 471.086 54.717 473.169 58.5984C475.253 62.4079 476.294 66.6846 476.294 71.4286C476.294 72.7943 476.258 73.8365 476.187 74.5553H434.7C434.987 79.7305 436.675 84.1509 439.764 87.8167C442.853 91.4825 447.056 93.3154 452.372 93.3154C456.682 93.3154 460.238 92.5247 463.04 90.9434C465.914 89.2902 468.212 87.0261 469.937 84.1509L475.755 88.0323C473.385 91.77 470.26 94.717 466.38 96.8733C462.501 98.9578 457.904 100 452.587 100C447.702 100 443.356 98.85 439.549 96.5499C435.741 94.2498 432.76 91.0512 430.605 86.9542C428.45 82.8572 427.372 78.221 427.372 73.0458C427.372 67.8706 428.414 63.2345 430.497 59.1375C432.652 55.0404 435.598 51.8419 439.333 49.5418C443.141 47.2417 447.451 46.0916 452.264 46.0916ZM468.967 68.5175C468.248 63.2704 466.488 59.3531 463.687 56.7655C460.885 54.106 457.077 52.7763 452.264 52.7763C447.595 52.7763 443.751 54.2857 440.734 57.3046C437.789 60.2516 435.921 63.9892 435.131 68.5175H468.967Z" fill="#FFD700"/>
<path d="M508.987 100C504.102 100 499.756 98.85 495.948 96.5499C492.141 94.2498 489.16 91.0512 487.004 86.9542C484.849 82.8572 483.772 78.221 483.772 73.0458C483.772 67.8706 484.813 63.2345 486.897 59.1375C489.052 55.0404 492.033 51.8419 495.841 49.5418C499.648 47.2417 503.958 46.0916 508.772 46.0916C512.866 46.0916 516.422 46.9901 519.44 48.7871C522.529 50.5121 525.33 52.9919 527.845 56.2264L522.457 60.4313C518.937 55.3279 514.375 52.7763 508.772 52.7763C505.395 52.7763 502.342 53.6388 499.612 55.3639C496.954 57.0889 494.871 59.4969 493.362 62.5876C491.854 65.6783 491.099 69.1644 491.099 73.0458C491.099 76.9272 491.854 80.4133 493.362 83.504C494.871 86.5948 496.954 89.0027 499.612 90.7278C502.342 92.4528 505.395 93.3154 508.772 93.3154C512.22 93.3154 515.057 92.7403 517.284 91.5903C519.511 90.3684 521.523 88.6074 523.319 86.3073L529.03 90.2965C526.659 93.2435 523.714 95.6155 520.194 97.4124C516.746 99.1375 513.01 100 508.987 100Z" fill="#FFD700"/>
<path d="M562.496 46.0916C566.016 46.0916 569.249 46.8104 572.194 48.248C575.211 49.6855 577.582 51.8059 579.306 54.6092C581.102 57.4124 582 60.7188 582 64.5283V98.2749H574.672V67.7628C574.672 57.7718 570.218 52.7763 561.31 52.7763C556.138 52.7763 552.259 54.6092 549.673 58.2749C547.086 61.9407 545.793 66.8643 545.793 73.0458V98.2749H538.466V20H545.793V56.2264C547.517 52.9919 549.78 50.5121 552.582 48.7871C555.456 46.9901 558.76 46.0916 562.496 46.0916Z" fill="#FFD700"/>
<defs>
<linearGradient id="paint0_linear_122_291" x1="-12.1751" y1="59.7796" x2="92.7887" y2="11.1056" gradientUnits="userSpaceOnUse">
<stop stop-color="#8FE1B0"/>
<stop offset="1" stop-color="#F2C744"/>
</linearGradient>
<linearGradient id="paint1_linear_122_291" x1="61.313" y1="71.7732" x2="114.761" y2="46.9905" gradientUnits="userSpaceOnUse">
<stop stop-color="#F2C744"/>
<stop offset="1" stop-color="#8FE1B0"/>
</linearGradient>
<linearGradient id="paint2_linear_122_291" x1="11.0754" y1="110.716" x2="92.4139" y2="72.9943" gradientUnits="userSpaceOnUse">
<stop stop-color="#8FE1B0"/>
<stop offset="1" stop-color="#006442"/>
</linearGradient>
</defs>
</svg>
